<?xml version="1.0" encoding="utf-8"?><!-- Uploaded to: SVG Repo, www.svgrepo.com, Generator: SVG Repo Mixer Tools -->
<svg width="800px" height="800px" viewBox="0 0 24 24" fill="none" xmlns="http://www.w3.org/2000/svg">
<rect width="24" height="24" fill="white"/>
<path fill-rule="evenodd" clip-rule="evenodd" d="M8 12C8 9.79086 9.79086 8 12 8C14.2091 8 16 9.79086 16 12C16 14.2091 14.2091 16 12 16C9.79086 16 8 14.2091 8 12Z" fill="#323232"/>
<path fill-rule="evenodd" clip-rule="evenodd" d="M12 2C12.5523 2 13 2.44772 13 3V5C13 5.55228 12.5523 6 12 6C11.4477 6 11 5.55228 11 5V3C11 2.44772 11.4477 2 12 2Z" fill="#323232"/>
<path fill-rule="evenodd" clip-rule="evenodd" d="M19.7071 4.29289C20.0976 4.68342 20.0976 5.31658 19.7071 5.70711L17.7071 7.70711C17.3166 8.09763 16.6834 8.09763 16.2929 7.70711C15.9024 7.31658 15.9024 6.68342 16.2929 6.29289L18.2929 4.29289C18.6834 3.90237 19.3166 3.90237 19.7071 4.29289Z" fill="#323232"/>
<path fill-rule="evenodd" clip-rule="evenodd" d="M18 12C18 11.4477 18.4477 11 19 11H21C21.5523 11 22 11.4477 22 12C22 12.5523 21.5523 13 21 13H19C18.4477 13 18 12.5523 18 12Z" fill="#323232"/>
<path fill-rule="evenodd" clip-rule="evenodd" d="M16.2929 16.2929C16.6834 15.9024 17.3166 15.9024 17.7071 16.2929L19.7071 18.2929C20.0976 18.6834 20.0976 19.3166 19.7071 19.7071C19.3166 20.0976 18.6834 20.0976 18.2929 19.7071L16.2929 17.7071C15.9024 17.3166 15.9024 16.6834 16.2929 16.2929Z" fill="#323232"/>
<path fill-rule="evenodd" clip-rule="evenodd" d="M12 18C12.5523 18 13 18.4477 13 19V21C13 21.5523 12.5523 22 12 22C11.4477 22 11 21.5523 11 21V19C11 18.4477 11.4477 18 12 18Z" fill="#323232"/>
<path fill-rule="evenodd" clip-rule="evenodd" d="M7.70711 16.2929C8.09763 16.6834 8.09763 17.3166 7.70711 17.7071L5.70711 19.7071C5.31658 20.0976 4.68342 20.0976 4.29289 19.7071C3.90237 19.3166 3.90237 18.6834 4.29289 18.2929L6.29289 16.2929C6.68342 15.9024 7.31658 15.9024 7.70711 16.2929Z" fill="#323232"/>
<path fill-rule="evenodd" clip-rule="evenodd" d="M2 12C2 11.4477 2.44772 11 3 11H5C5.55228 11 6 11.4477 6 12C6 12.5523 5.55228 13 5 13H3C2.44772 13 2 12.5523 2 12Z" fill="#323232"/>
<path fill-rule="evenodd" clip-rule="evenodd" d="M4.29289 4.29289C4.68342 3.90237 5.31658 3.90237 5.70711 4.29289L7.70711 6.29289C8.09763 6.68342 8.09763 7.31658 7.70711 7.70711C7.31658 8.09763 6.68342 8.09763 6.29289 7.70711L4.29289 5.70711C3.90237 5.31658 3.90237 4.68342 4.29289 4.29289Z" fill="#323232"/>
</svg>